G75*
G71*
%OFA0B0*%
%FSLAX23Y23*%
%IPPOS*%
%LPD*%
%ADD10C,0.1*%
%ADD11C,0.305*%
%LPD*%D10*
X0Y0D02*
X0Y100D01*
X0Y200D01*
X0Y300D01*
X0Y400D01*
X0Y499D01*
X0Y599D01*
X0Y699D01*
X0Y799D01*
X0Y899D01*
X0Y999D01*
X0Y1099D01*
X0Y1199D01*
X0Y1299D01*
X0Y1398D01*
X0Y1498D01*
X0Y1598D01*
X0Y1698D01*
X0Y1798D01*
X0Y1898D01*
X0Y1998D01*
X0Y2098D01*
X0Y2198D01*
X0Y2297D01*
X0Y2397D01*
X0Y2497D01*
X0Y2597D01*
X0Y2697D01*
X0Y2797D01*
X0Y2897D01*
X0Y2997D01*
X0Y3097D01*
X0Y3196D01*
X0Y3296D01*
X0Y3396D01*
X0Y3496D01*
X0Y3596D01*
X0Y3696D01*
X0Y3796D01*
X0Y3896D01*
X0Y3995D01*
X0Y4095D01*
X0Y4195D01*
X0Y4295D01*
X0Y4395D01*
X0Y4495D01*
X0Y4595D01*
X0Y4695D01*
X0Y4795D01*
X0Y4894D01*
X0Y4994D01*
X0Y5094D01*
X0Y5194D01*
X0Y5294D01*
X0Y5394D01*
X0Y5494D01*
X0Y5594D01*
X0Y5694D01*
X0Y5793D01*
X0Y5893D01*
X0Y5993D01*
X0Y6093D01*
X0Y6193D01*
X0Y6293D01*
X0Y6393D01*
X0Y6493D01*
X0Y6593D01*
X0Y6692D01*
X0Y6792D01*
X0Y6892D01*
X0Y6992D01*
X0Y7092D01*
X0Y7192D01*
X0Y7292D01*
X0Y7392D01*
X0Y7492D01*
X0Y7591D01*
X0Y7691D01*
X0Y7791D01*
X0Y7891D01*
X0Y7991D01*
X0Y8091D01*
X0Y8191D01*
X0Y8291D01*
X0Y8391D01*
X0Y8490D01*
X0Y8590D01*
X0Y8690D01*
X0Y8790D01*
X0Y8890D01*
X0Y8990D01*
X0Y9090D01*
X0Y9190D01*
X0Y9290D01*
X0Y9389D01*
X0Y9489D01*
X0Y9589D01*
X0Y9689D01*
X0Y9789D01*
X0Y9889D01*
X0Y9989D01*
X0Y10089D01*
X0Y10188D01*
X0Y10288D01*
X0Y10388D01*
X0Y10488D01*
X0Y10588D01*
X0Y10688D01*
X0Y10788D01*
X0Y10888D01*
X0Y10988D01*
X0Y11087D01*
X0Y11187D01*
X0Y11287D01*
X0Y11387D01*
X0Y11487D01*
X0Y11587D01*
X0Y11687D01*
X0Y11787D01*
X0Y11887D01*
X0Y11986D01*
X0Y12086D01*
X0Y12186D01*
X0Y12286D01*
X0Y12386D01*
X0Y12486D01*
X0Y12586D01*
X0Y12686D01*
X0Y12786D01*
X0Y12885D01*
X0Y12985D01*
X0Y13085D01*
X0Y13185D01*
X0Y13285D01*
X0Y13385D01*
X0Y13485D01*
X0Y13585D01*
X0Y13685D01*
X0Y13784D01*
X0Y13884D01*
X0Y13984D01*
X0Y14084D01*
X0Y14184D01*
X0Y14284D01*
X0Y14384D01*
X0Y14484D01*
X0Y14584D01*
X0Y14683D01*
X0Y14783D01*
X0Y14883D01*
X0Y14983D01*
X0Y15083D01*
X0Y15183D01*
X0Y15283D01*
X0Y15383D01*
X0Y15483D01*
X0Y15582D01*
X0Y15682D01*
X0Y15782D01*
X0Y15882D01*
X0Y15982D01*
X0Y16082D01*
X0Y16182D01*
X0Y16282D01*
X0Y16381D01*
X0Y16481D01*
X0Y16581D01*
X0Y16681D01*
X0Y16781D01*
X0Y16881D01*
X0Y16981D01*
X0Y17081D01*
X0Y17181D01*
X0Y17280D01*
X0Y17380D01*
X0Y17480D01*
X0Y17580D01*
X0Y17680D01*
X0Y17780D01*
X0Y17880D01*
X0Y17980D01*
X0Y18080D01*
X0Y18179D01*
X0Y18279D01*
X0Y18379D01*
X0Y18479D01*
X0Y18579D01*
X0Y18679D01*
X0Y18779D01*
X0Y18879D01*
X0Y18979D01*
X0Y19078D01*
X0Y19178D01*
X0Y19278D01*
X0Y19378D01*
X0Y19478D01*
X0Y19578D01*
X0Y19678D01*
X0Y19778D01*
X0Y19878D01*
X0Y19977D01*
X0Y20077D01*
X0Y20177D01*
X0Y20277D01*
X0Y20377D01*
X0Y20477D01*
X0Y20577D01*
X0Y20677D01*
X0Y20777D01*
X0Y20876D01*
X0Y20976D01*
X0Y21076D01*
X0Y21176D01*
X0Y21276D01*
X0Y21376D01*
X0Y21476D01*
X0Y21576D01*
X0Y21676D01*
X0Y21775D01*
X0Y21875D01*
X0Y21975D01*
X0Y22075D01*
X0Y22175D01*
X0Y22275D01*
X0Y22375D01*
X0Y22475D01*
X0Y22575D01*
X0Y22674D01*
X0Y22774D01*
X0Y22874D01*
X0Y22974D01*
X0Y23074D01*
X0Y23174D01*
X0Y23274D01*
X0Y23374D01*
X0Y23473D01*
X0Y23573D01*
X0Y23673D01*
X0Y23773D01*
X0Y23873D01*
X0Y23973D01*
X0Y24073D01*
X0Y24173D01*
X0Y24273D01*
X0Y24372D01*
X0Y24472D01*
X0Y24572D01*
X0Y24672D01*
X0Y24772D01*
X0Y24872D01*
X0Y24972D01*
X0Y25072D01*
X0Y25172D01*
X0Y25271D01*
X0Y25371D01*
X0Y25471D01*
X0Y25571D01*
X0Y25671D01*
X0Y25771D01*
X0Y25871D01*
X0Y25971D01*
X0Y26071D01*
X0Y26170D01*
X0Y26270D01*
X0Y26370D01*
X0Y26470D01*
X0Y26570D01*
X0Y26670D01*
X0Y26770D01*
X0Y26870D01*
X0Y26970D01*
X0Y27069D01*
X0Y27169D01*
X0Y27269D01*
X0Y27369D01*
X0Y27469D01*
X0Y27569D01*
X0Y27669D01*
X0Y27769D01*
X0Y27869D01*
X0Y27968D01*
X0Y28068D01*
X0Y28168D01*
X0Y28268D01*
X0Y28368D01*
X0Y28468D01*
X0Y28568D01*
X0Y28668D01*
X0Y28768D01*
X0Y28867D01*
X0Y28967D01*
X0Y29067D01*
X0Y29167D01*
X0Y29267D01*
X0Y29367D01*
X0Y29467D01*
X0Y29567D01*
X0Y29667D01*
X0Y29766D01*
X0Y29866D01*
X0Y29966D01*
X0Y30066D01*
X0Y30166D01*
X0Y30266D01*
X0Y30366D01*
X0Y30466D01*
X0Y30565D01*
X0Y30665D01*
X0Y30765D01*
X0Y30865D01*
X0Y30965D01*
X0Y31065D01*
X0Y31165D01*
X0Y31265D01*
X0Y31365D01*
X0Y31464D01*
X0Y31564D01*
X0Y31664D01*
X0Y31764D01*
X0Y31864D01*
X0Y31964D01*
X0Y32064D01*
X0Y32164D01*
X0Y32264D01*
X0Y32363D01*
X0Y32463D01*
X0Y32563D01*
X0Y32663D01*
X0Y32763D01*
X0Y32863D01*
X0Y32963D01*
X0Y33063D01*
X0Y33163D01*
X0Y33262D01*
X0Y33362D01*
X0Y33462D01*
X0Y33562D01*
X0Y33662D01*
X0Y33762D01*
X0Y33862D01*
X0Y33962D01*
X0Y34062D01*
X0Y34161D01*
X0Y34261D01*
X0Y34361D01*
X0Y34461D01*
X0Y34561D01*
X0Y34661D01*
X0Y34761D01*
X0Y34861D01*
X0Y34961D01*
X0Y35060D01*
X0Y35160D01*
X0Y35260D01*
X0Y35360D01*
X0Y35460D01*
X0Y35560D01*
X0Y35660D01*
X0Y35760D01*
X0Y35860D01*
X0Y35959D01*
X0Y36059D01*
X0Y36159D01*
X0Y36259D01*
X0Y36359D01*
X0Y36459D01*
X0Y36559D01*
X0Y36659D01*
X0Y36759D01*
X0Y36858D01*
X0Y36958D01*
X0Y37058D01*
X0Y37158D01*
X0Y37258D01*
X0Y37358D01*
X0Y37458D01*
X0Y37558D01*
X0Y37658D01*
X0Y37757D01*
X0Y37857D01*
X0Y37957D01*
X0Y38057D01*
X0Y38157D01*
X0Y38257D01*
X0Y38357D01*
X0Y38457D01*
X0Y38556D01*
X0Y38656D01*
X0Y38756D01*
X0Y38856D01*
X0Y38956D01*
X0Y39056D01*
X0Y39156D01*
X0Y39256D01*
X0Y39356D01*
X0Y39455D01*
X0Y39555D01*
X0Y39655D01*
X0Y39755D01*
X0Y39855D01*
X0Y39955D01*
X0Y40055D01*
X0Y40155D01*
X0Y40255D01*
X0Y40354D01*
X0Y40454D01*
X0Y40554D01*
X0Y40654D01*
X0Y40754D01*
X0Y40854D01*
X0Y40954D01*
X0Y41054D01*
X0Y41154D01*
X0Y41253D01*
X0Y41353D01*
X0Y41453D01*
X0Y41553D01*
X0Y41653D01*
X0Y41753D01*
X0Y41853D01*
X0Y41953D01*
X0Y42053D01*
X0Y42152D01*
X0Y42252D01*
X0Y42352D01*
X0Y42452D01*
X0Y42552D01*
X0Y42652D01*
X0Y42752D01*
X0Y42852D01*
X0Y42952D01*
X0Y43051D01*
X0Y43151D01*
X0Y43251D01*
X0Y43351D01*
X0Y43451D01*
X0Y43551D01*
X0Y43651D01*
X0Y43751D01*
X0Y43851D01*
X0Y43950D01*
X0Y44050D01*
X0Y44150D01*
X0Y44250D01*
X0Y44350D01*
X0Y44450D01*
X0Y44550D01*
X0Y44650D01*
X0Y44750D01*
X0Y44849D01*
X0Y44949D01*
X0Y45049D01*
X0Y45149D01*
X0Y45249D01*
X0Y45349D01*
X0Y45449D01*
X0Y45549D01*
X0Y45649D01*
X0Y45748D01*
X0Y45848D01*
X0Y45948D01*
X0Y46048D01*
X0Y46148D01*
X0Y46248D01*
X0Y46348D01*
X0Y46448D01*
X0Y46548D01*
X0Y46647D01*
X0Y46747D01*
X0Y46847D01*
X0Y46947D01*
X0Y47047D01*
X0Y47147D01*
X0Y47247D01*
X0Y47347D01*
X0Y47447D01*
X0Y47546D01*
X0Y47646D01*
X0Y47746D01*
X0Y47846D01*
X0Y47946D01*
X0Y48046D01*
X0Y48146D01*
X0Y48246D01*
X0Y48346D01*
X0Y48445D01*
X0Y48545D01*
X0Y48645D01*
X0Y48745D01*
X0Y48845D01*
X0Y48945D01*
X0Y49045D01*
X0Y49145D01*
X0Y49244D01*
X0Y49344D01*
X0Y49444D01*
X0Y49544D01*
X0Y49644D01*
X0Y49744D01*
X0Y49844D01*
X0Y49944D01*
X0Y50044D01*
X0Y50143D01*
X0Y50243D01*
X0Y50343D01*
X0Y50443D01*
X0Y50543D01*
X0Y50643D01*
X0Y50743D01*
X0Y50843D01*
X0Y50943D01*
X0Y51043D01*
X0Y51142D01*
X0Y51242D01*
X0Y51342D01*
X0Y51442D01*
X0Y51542D01*
X0Y51642D01*
X0Y51742D01*
X0Y51842D01*
X0Y51942D01*
X0Y52041D01*
X0Y52141D01*
X0Y52241D01*
X0Y52341D01*
X0Y52441D01*
X0Y52541D01*
X0Y52641D01*
X0Y52741D01*
X0Y52841D01*
X0Y52940D01*
X0Y53040D01*
X0Y53140D01*
X0Y53240D01*
X0Y53340D01*
X100Y53340D01*
X200Y53340D01*
X300Y53340D01*
X400Y53340D01*
X500Y53340D01*
X599Y53340D01*
X699Y53340D01*
X799Y53340D01*
X899Y53340D01*
X999Y53340D01*
X1099Y53340D01*
X1199Y53340D01*
X1299Y53340D01*
X1399Y53340D01*
X1499Y53340D01*
X1599Y53340D01*
X1699Y53340D01*
X1798Y53340D01*
X1898Y53340D01*
X1998Y53340D01*
X2098Y53340D01*
X2198Y53340D01*
X2298Y53340D01*
X2398Y53340D01*
X2498Y53340D01*
X2598Y53340D01*
X2698Y53340D01*
X2798Y53340D01*
X2897Y53340D01*
X2997Y53340D01*
X3097Y53340D01*
X3197Y53340D01*
X3297Y53340D01*
X3397Y53340D01*
X3497Y53340D01*
X3597Y53340D01*
X3697Y53340D01*
X3797Y53340D01*
X3897Y53340D01*
X3996Y53340D01*
X4096Y53340D01*
X4196Y53340D01*
X4296Y53340D01*
X4396Y53340D01*
X4496Y53340D01*
X4596Y53340D01*
X4696Y53340D01*
X4796Y53340D01*
X4896Y53340D01*
X4996Y53340D01*
X5096Y53340D01*
X5195Y53340D01*
X5295Y53340D01*
X5395Y53340D01*
X5495Y53340D01*
X5595Y53340D01*
X5695Y53340D01*
X5795Y53340D01*
X5895Y53340D01*
X5995Y53340D01*
X6095Y53340D01*
X6195Y53340D01*
X6294Y53340D01*
X6394Y53340D01*
X6494Y53340D01*
X6594Y53340D01*
X6694Y53340D01*
X6794Y53340D01*
X6894Y53340D01*
X6994Y53340D01*
X7094Y53340D01*
X7194Y53340D01*
X7294Y53340D01*
X7393Y53340D01*
X7493Y53340D01*
X7593Y53340D01*
X7693Y53340D01*
X7793Y53340D01*
X7893Y53340D01*
X7993Y53340D01*
X8093Y53340D01*
X8193Y53340D01*
X8293Y53340D01*
X8393Y53340D01*
X8493Y53340D01*
X8592Y53340D01*
X8692Y53340D01*
X8792Y53340D01*
X8892Y53340D01*
X8992Y53340D01*
X9092Y53340D01*
X9192Y53340D01*
X9292Y53340D01*
X9392Y53340D01*
X9492Y53340D01*
X9592Y53340D01*
X9691Y53340D01*
X9791Y53340D01*
X9891Y53340D01*
X9991Y53340D01*
X10091Y53340D01*
X10191Y53340D01*
X10291Y53340D01*
X10391Y53340D01*
X10491Y53340D01*
X10591Y53340D01*
X10691Y53340D01*
X10791Y53340D01*
X10890Y53340D01*
X10990Y53340D01*
X11090Y53340D01*
X11190Y53340D01*
X11290Y53340D01*
X11390Y53340D01*
X11490Y53340D01*
X11590Y53340D01*
X11690Y53340D01*
X11790Y53340D01*
X11890Y53340D01*
X11989Y53340D01*
X12089Y53340D01*
X12189Y53340D01*
X12289Y53340D01*
X12389Y53340D01*
X12489Y53340D01*
X12589Y53340D01*
X12689Y53340D01*
X12789Y53340D01*
X12889Y53340D01*
X12989Y53340D01*
X13088Y53340D01*
X13188Y53340D01*
X13288Y53340D01*
X13388Y53340D01*
X13488Y53340D01*
X13588Y53340D01*
X13688Y53340D01*
X13788Y53340D01*
X13888Y53340D01*
X13988Y53340D01*
X14088Y53340D01*
X14188Y53340D01*
X14287Y53340D01*
X14387Y53340D01*
X14487Y53340D01*
X14587Y53340D01*
X14687Y53340D01*
X14787Y53340D01*
X14887Y53340D01*
X14987Y53340D01*
X15087Y53340D01*
X15187Y53340D01*
X15287Y53340D01*
X15386Y53340D01*
X15486Y53340D01*
X15586Y53340D01*
X15686Y53340D01*
X15786Y53340D01*
X15886Y53340D01*
X15986Y53340D01*
X16086Y53340D01*
X16186Y53340D01*
X16286Y53340D01*
X16386Y53340D01*
X16485Y53340D01*
X16585Y53340D01*
X16685Y53340D01*
X16785Y53340D01*
X16885Y53340D01*
X16985Y53340D01*
X17085Y53340D01*
X17185Y53340D01*
X17285Y53340D01*
X17385Y53340D01*
X17485Y53340D01*
X17585Y53340D01*
X17684Y53340D01*
X17784Y53340D01*
X17884Y53340D01*
X17984Y53340D01*
X18084Y53340D01*
X18184Y53340D01*
X18284Y53340D01*
X18384Y53340D01*
X18484Y53340D01*
X18584Y53340D01*
X18684Y53340D01*
X18783Y53340D01*
X18883Y53340D01*
X18983Y53340D01*
X19083Y53340D01*
X19183Y53340D01*
X19283Y53340D01*
X19383Y53340D01*
X19483Y53340D01*
X19583Y53340D01*
X19683Y53340D01*
X19783Y53340D01*
X19883Y53340D01*
X19982Y53340D01*
X20082Y53340D01*
X20182Y53340D01*
X20282Y53340D01*
X20382Y53340D01*
X20482Y53340D01*
X20582Y53340D01*
X20682Y53340D01*
X20782Y53340D01*
X20882Y53340D01*
X20982Y53340D01*
X21081Y53340D01*
X21181Y53340D01*
X21281Y53340D01*
X21381Y53340D01*
X21481Y53340D01*
X21581Y53340D01*
X21681Y53340D01*
X21781Y53340D01*
X21881Y53340D01*
X21981Y53340D01*
X22081Y53340D01*
X22180Y53340D01*
X22280Y53340D01*
X22380Y53340D01*
X22480Y53340D01*
X22580Y53340D01*
X22680Y53340D01*
X22780Y53340D01*
X22880Y53340D01*
X22980Y53340D01*
X23080Y53340D01*
X23180Y53340D01*
X23280Y53340D01*
X23379Y53340D01*
X23479Y53340D01*
X23579Y53340D01*
X23679Y53340D01*
X23779Y53340D01*
X23879Y53340D01*
X23979Y53340D01*
X24079Y53340D01*
X24179Y53340D01*
X24279Y53340D01*
X24379Y53340D01*
X24478Y53340D01*
X24578Y53340D01*
X24678Y53340D01*
X24778Y53340D01*
X24878Y53340D01*
X24978Y53340D01*
X25078Y53340D01*
X25178Y53340D01*
X25278Y53340D01*
X25378Y53340D01*
X25478Y53340D01*
X25578Y53340D01*
X25677Y53340D01*
X25777Y53340D01*
X25877Y53340D01*
X25977Y53340D01*
X26077Y53340D01*
X26177Y53340D01*
X26277Y53340D01*
X26377Y53340D01*
X26477Y53340D01*
X26577Y53340D01*
X26677Y53340D01*
X26776Y53340D01*
X26876Y53340D01*
X26976Y53340D01*
X27076Y53340D01*
X27176Y53340D01*
X27276Y53340D01*
X27376Y53340D01*
X27476Y53340D01*
X27576Y53340D01*
X27676Y53340D01*
X27776Y53340D01*
X27875Y53340D01*
X27975Y53340D01*
X28075Y53340D01*
X28175Y53340D01*
X28275Y53340D01*
X28375Y53340D01*
X28475Y53340D01*
X28575Y53340D01*
X28675Y53340D01*
X28775Y53340D01*
X28875Y53340D01*
X28975Y53340D01*
X29074Y53340D01*
X29174Y53340D01*
X29274Y53340D01*
X29374Y53340D01*
X29474Y53340D01*
X29574Y53340D01*
X29674Y53340D01*
X29774Y53340D01*
X29874Y53340D01*
X29974Y53340D01*
X30074Y53340D01*
X30173Y53340D01*
X30273Y53340D01*
X30373Y53340D01*
X30473Y53340D01*
X30573Y53340D01*
X30673Y53340D01*
X30773Y53340D01*
X30873Y53340D01*
X30973Y53340D01*
X31073Y53340D01*
X31173Y53340D01*
X31273Y53340D01*
X31372Y53340D01*
X31472Y53340D01*
X31572Y53340D01*
X31672Y53340D01*
X31772Y53340D01*
X31872Y53340D01*
X31972Y53340D01*
X32072Y53340D01*
X32172Y53340D01*
X32272Y53340D01*
X32372Y53340D01*
X32471Y53340D01*
X32571Y53340D01*
X32671Y53340D01*
X32771Y53340D01*
X32871Y53340D01*
X32971Y53340D01*
X33071Y53340D01*
X33171Y53340D01*
X33271Y53340D01*
X33371Y53340D01*
X33471Y53340D01*
X33571Y53340D01*
X33670Y53340D01*
X33770Y53340D01*
X33870Y53340D01*
X33970Y53340D01*
X34070Y53340D01*
X34170Y53340D01*
X34270Y53340D01*
X34370Y53340D01*
X34470Y53340D01*
X34570Y53340D01*
X34670Y53340D01*
X34769Y53340D01*
X34869Y53340D01*
X34969Y53340D01*
X35069Y53340D01*
X35169Y53340D01*
X35269Y53340D01*
X35369Y53340D01*
X35469Y53340D01*
X35569Y53340D01*
X35669Y53340D01*
X35769Y53340D01*
X35868Y53340D01*
X35968Y53340D01*
X36068Y53340D01*
X36168Y53340D01*
X36268Y53340D01*
X36368Y53340D01*
X36468Y53340D01*
X36568Y53340D01*
X36668Y53340D01*
X36768Y53340D01*
X36868Y53340D01*
X36968Y53340D01*
X37067Y53340D01*
X37167Y53340D01*
X37267Y53340D01*
X37367Y53340D01*
X37467Y53340D01*
X37567Y53340D01*
X37667Y53340D01*
X37767Y53340D01*
X37867Y53340D01*
X37967Y53340D01*
X38067Y53340D01*
X38166Y53340D01*
X38266Y53340D01*
X38366Y53340D01*
X38466Y53340D01*
X38566Y53340D01*
X38666Y53340D01*
X38766Y53340D01*
X38866Y53340D01*
X38966Y53340D01*
X39066Y53340D01*
X39166Y53340D01*
X39265Y53340D01*
X39365Y53340D01*
X39465Y53340D01*
X39565Y53340D01*
X39665Y53340D01*
X39765Y53340D01*
X39865Y53340D01*
X39965Y53340D01*
X40065Y53340D01*
X40165Y53340D01*
X40265Y53340D01*
X40365Y53340D01*
X40464Y53340D01*
X40564Y53340D01*
X40664Y53340D01*
X40764Y53340D01*
X40864Y53340D01*
X40964Y53340D01*
X41064Y53340D01*
X41164Y53340D01*
X41264Y53340D01*
X41364Y53340D01*
X41464Y53340D01*
X41563Y53340D01*
X41663Y53340D01*
X41763Y53340D01*
X41863Y53340D01*
X41963Y53340D01*
X42063Y53340D01*
X42163Y53340D01*
X42263Y53340D01*
X42363Y53340D01*
X42463Y53340D01*
X42563Y53340D01*
X42663Y53340D01*
X42762Y53340D01*
X42862Y53340D01*
X42962Y53340D01*
X43062Y53340D01*
X43162Y53340D01*
X43262Y53340D01*
X43362Y53340D01*
X43462Y53340D01*
X43562Y53340D01*
X43662Y53340D01*
X43762Y53340D01*
X43861Y53340D01*
X43961Y53340D01*
X44061Y53340D01*
X44161Y53340D01*
X44261Y53340D01*
X44361Y53340D01*
X44461Y53340D01*
X44561Y53340D01*
X44661Y53340D01*
X44761Y53340D01*
X44861Y53340D01*
X44961Y53340D01*
X45060Y53340D01*
X45160Y53340D01*
X45260Y53340D01*
X45360Y53340D01*
X45460Y53340D01*
X45560Y53340D01*
X45660Y53340D01*
X45760Y53340D01*
X45860Y53340D01*
X45960Y53340D01*
X46060Y53340D01*
X46159Y53340D01*
X46259Y53340D01*
X46359Y53340D01*
X46459Y53340D01*
X46559Y53340D01*
X46659Y53340D01*
X46759Y53340D01*
X46859Y53340D01*
X46959Y53340D01*
X47059Y53340D01*
X47159Y53340D01*
X47259Y53340D01*
X47358Y53340D01*
X47458Y53340D01*
X47558Y53340D01*
X47658Y53340D01*
X47758Y53340D01*
X47858Y53340D01*
X47958Y53340D01*
X48058Y53340D01*
X48158Y53340D01*
X48258Y53340D01*
X48358Y53340D01*
X48457Y53340D01*
X48557Y53340D01*
X48657Y53340D01*
X48757Y53340D01*
X48857Y53340D01*
X48957Y53340D01*
X49057Y53340D01*
X49157Y53340D01*
X49257Y53340D01*
X49357Y53340D01*
X49457Y53340D01*
X49557Y53340D01*
X49656Y53340D01*
X49756Y53340D01*
X49856Y53340D01*
X49956Y53340D01*
X50056Y53340D01*
X50156Y53340D01*
X50256Y53340D01*
X50356Y53340D01*
X50456Y53340D01*
X50556Y53340D01*
X50656Y53340D01*
X50755Y53340D01*
X50855Y53340D01*
X50955Y53340D01*
X51055Y53340D01*
X51155Y53340D01*
X51255Y53340D01*
X51355Y53340D01*
X51455Y53340D01*
X51555Y53340D01*
X51655Y53340D01*
X51755Y53340D01*
X51855Y53340D01*
X51954Y53340D01*
X52054Y53340D01*
X52154Y53340D01*
X52254Y53340D01*
X52354Y53340D01*
X52454Y53340D01*
X52554Y53340D01*
X52654Y53340D01*
X52754Y53340D01*
X52854Y53340D01*
X52954Y53340D01*
X53053Y53340D01*
X53153Y53340D01*
X53253Y53340D01*
X53353Y53340D01*
X53453Y53340D01*
X53553Y53340D01*
X53653Y53340D01*
X53753Y53340D01*
X53853Y53340D01*
X53953Y53340D01*
X54053Y53340D01*
X54153Y53340D01*
X54252Y53340D01*
X54352Y53340D01*
X54452Y53340D01*
X54552Y53340D01*
X54652Y53340D01*
X54752Y53340D01*
X54852Y53340D01*
X54952Y53340D01*
X55052Y53340D01*
X55152Y53340D01*
X55252Y53340D01*
X55351Y53340D01*
X55451Y53340D01*
X55551Y53340D01*
X55651Y53340D01*
X55751Y53340D01*
X55851Y53340D01*
X55951Y53340D01*
X56051Y53340D01*
X56151Y53340D01*
X56251Y53340D01*
X56351Y53340D01*
X56451Y53340D01*
X56550Y53340D01*
X56650Y53340D01*
X56750Y53340D01*
X56850Y53340D01*
X56950Y53340D01*
X57050Y53340D01*
X57150Y53340D01*
X57150Y53240D01*
X57150Y53140D01*
X57150Y53040D01*
X57150Y52940D01*
X57150Y52841D01*
X57150Y52741D01*
X57150Y52641D01*
X57150Y52541D01*
X57150Y52441D01*
X57150Y52341D01*
X57150Y52241D01*
X57150Y52141D01*
X57150Y52041D01*
X57150Y51942D01*
X57150Y51842D01*
X57150Y51742D01*
X57150Y51642D01*
X57150Y51542D01*
X57150Y51442D01*
X57150Y51342D01*
X57150Y51242D01*
X57150Y51142D01*
X57150Y51043D01*
X57150Y50943D01*
X57150Y50843D01*
X57150Y50743D01*
X57150Y50643D01*
X57150Y50543D01*
X57150Y50443D01*
X57150Y50343D01*
X57150Y50243D01*
X57150Y50144D01*
X57150Y50044D01*
X57150Y49944D01*
X57150Y49844D01*
X57150Y49744D01*
X57150Y49644D01*
X57150Y49544D01*
X57150Y49444D01*
X57150Y49345D01*
X57150Y49245D01*
X57150Y49145D01*
X57150Y49045D01*
X57150Y48945D01*
X57150Y48845D01*
X57150Y48745D01*
X57150Y48645D01*
X57150Y48545D01*
X57150Y48446D01*
X57150Y48346D01*
X57150Y48246D01*
X57150Y48146D01*
X57150Y48046D01*
X57150Y47946D01*
X57150Y47846D01*
X57150Y47746D01*
X57150Y47646D01*
X57150Y47547D01*
X57150Y47447D01*
X57150Y47347D01*
X57150Y47247D01*
X57150Y47147D01*
X57150Y47047D01*
X57150Y46947D01*
X57150Y46847D01*
X57150Y46747D01*
X57150Y46648D01*
X57150Y46548D01*
X57150Y46448D01*
X57150Y46348D01*
X57150Y46248D01*
X57150Y46148D01*
X57150Y46048D01*
X57150Y45948D01*
X57150Y45848D01*
X57150Y45749D01*
X57150Y45649D01*
X57150Y45549D01*
X57150Y45449D01*
X57150Y45349D01*
X57150Y45249D01*
X57150Y45149D01*
X57150Y45049D01*
X57150Y44949D01*
X57150Y44850D01*
X57150Y44750D01*
X57150Y44650D01*
X57150Y44550D01*
X57150Y44450D01*
X57150Y44350D01*
X57150Y44250D01*
X57150Y44150D01*
X57150Y44050D01*
X57150Y43951D01*
X57150Y43851D01*
X57150Y43751D01*
X57150Y43651D01*
X57150Y43551D01*
X57150Y43451D01*
X57150Y43351D01*
X57150Y43251D01*
X57150Y43152D01*
X57150Y43052D01*
X57150Y42952D01*
X57150Y42852D01*
X57150Y42752D01*
X57150Y42652D01*
X57150Y42552D01*
X57150Y42452D01*
X57150Y42352D01*
X57150Y42253D01*
X57150Y42153D01*
X57150Y42053D01*
X57150Y41953D01*
X57150Y41853D01*
X57150Y41753D01*
X57150Y41653D01*
X57150Y41553D01*
X57150Y41453D01*
X57150Y41354D01*
X57150Y41254D01*
X57150Y41154D01*
X57150Y41054D01*
X57150Y40954D01*
X57150Y40854D01*
X57150Y40754D01*
X57150Y40654D01*
X57150Y40554D01*
X57150Y40455D01*
X57150Y40355D01*
X57150Y40255D01*
X57150Y40155D01*
X57150Y40055D01*
X57150Y39955D01*
X57150Y39855D01*
X57150Y39755D01*
X57150Y39655D01*
X57150Y39556D01*
X57150Y39456D01*
X57150Y39356D01*
X57150Y39256D01*
X57150Y39156D01*
X57150Y39056D01*
X57150Y38956D01*
X57150Y38856D01*
X57150Y38756D01*
X57150Y38657D01*
X57150Y38557D01*
X57150Y38457D01*
X57150Y38357D01*
X57150Y38257D01*
X57150Y38157D01*
X57150Y38057D01*
X57150Y37957D01*
X57150Y37857D01*
X57150Y37758D01*
X57150Y37658D01*
X57150Y37558D01*
X57150Y37458D01*
X57150Y37358D01*
X57150Y37258D01*
X57150Y37158D01*
X57150Y37058D01*
X57150Y36959D01*
X57150Y36859D01*
X57150Y36759D01*
X57150Y36659D01*
X57150Y36559D01*
X57150Y36459D01*
X57150Y36359D01*
X57150Y36259D01*
X57150Y36159D01*
X57150Y36060D01*
X57150Y35960D01*
X57150Y35860D01*
X57150Y35760D01*
X57150Y35660D01*
X57150Y35560D01*
X57150Y35460D01*
X57150Y35360D01*
X57150Y35260D01*
X57150Y35161D01*
X57150Y35061D01*
X57150Y34961D01*
X57150Y34861D01*
X57150Y34761D01*
X57150Y34661D01*
X57150Y34561D01*
X57150Y34461D01*
X57150Y34361D01*
X57150Y34262D01*
X57150Y34162D01*
X57150Y34062D01*
X57150Y33962D01*
X57150Y33862D01*
X57150Y33762D01*
X57150Y33662D01*
X57150Y33562D01*
X57150Y33462D01*
X57150Y33363D01*
X57150Y33263D01*
X57150Y33163D01*
X57150Y33063D01*
X57150Y32963D01*
X57150Y32863D01*
X57150Y32763D01*
X57150Y32663D01*
X57150Y32563D01*
X57150Y32464D01*
X57150Y32364D01*
X57150Y32264D01*
X57150Y32164D01*
X57150Y32064D01*
X57150Y31964D01*
X57150Y31864D01*
X57150Y31764D01*
X57150Y31664D01*
X57150Y31565D01*
X57150Y31465D01*
X57150Y31365D01*
X57150Y31265D01*
X57150Y31165D01*
X57150Y31065D01*
X57150Y30965D01*
X57150Y30865D01*
X57150Y30765D01*
X57150Y30666D01*
X57150Y30566D01*
X57150Y30466D01*
X57150Y30366D01*
X57150Y30266D01*
X57150Y30166D01*
X57150Y30066D01*
X57150Y29966D01*
X57150Y29867D01*
X57150Y29767D01*
X57150Y29667D01*
X57150Y29567D01*
X57150Y29467D01*
X57150Y29367D01*
X57150Y29267D01*
X57150Y29167D01*
X57150Y29067D01*
X57150Y28968D01*
X57150Y28868D01*
X57150Y28768D01*
X57150Y28668D01*
X57150Y28568D01*
X57150Y28468D01*
X57150Y28368D01*
X57150Y28268D01*
X57150Y28168D01*
X57150Y28069D01*
X57150Y27969D01*
X57150Y27869D01*
X57150Y27769D01*
X57150Y27669D01*
X57150Y27569D01*
X57150Y27469D01*
X57150Y27369D01*
X57150Y27269D01*
X57150Y27170D01*
X57150Y27070D01*
X57150Y26970D01*
X57150Y26870D01*
X57150Y26770D01*
X57150Y26670D01*
X57150Y26570D01*
X57150Y26470D01*
X57150Y26370D01*
X57150Y26271D01*
X57150Y26171D01*
X57150Y26071D01*
X57150Y25971D01*
X57150Y25871D01*
X57150Y25771D01*
X57150Y25671D01*
X57150Y25571D01*
X57150Y25471D01*
X57150Y25372D01*
X57150Y25272D01*
X57150Y25172D01*
X57150Y25072D01*
X57150Y24972D01*
X57150Y24872D01*
X57150Y24772D01*
X57150Y24672D01*
X57150Y24572D01*
X57150Y24473D01*
X57150Y24373D01*
X57150Y24273D01*
X57150Y24173D01*
X57150Y24073D01*
X57150Y23973D01*
X57150Y23873D01*
X57150Y23773D01*
X57150Y23673D01*
X57150Y23574D01*
X57150Y23474D01*
X57150Y23374D01*
X57150Y23274D01*
X57150Y23174D01*
X57150Y23074D01*
X57150Y22974D01*
X57150Y22874D01*
X57150Y22775D01*
X57150Y22675D01*
X57150Y22575D01*
X57150Y22475D01*
X57150Y22375D01*
X57150Y22275D01*
X57150Y22175D01*
X57150Y22075D01*
X57150Y21975D01*
X57150Y21876D01*
X57150Y21776D01*
X57150Y21676D01*
X57150Y21576D01*
X57150Y21476D01*
X57150Y21376D01*
X57150Y21276D01*
X57150Y21176D01*
X57150Y21076D01*
X57150Y20977D01*
X57150Y20877D01*
X57150Y20777D01*
X57150Y20677D01*
X57150Y20577D01*
X57150Y20477D01*
X57150Y20377D01*
X57150Y20277D01*
X57150Y20177D01*
X57150Y20078D01*
X57150Y19978D01*
X57150Y19878D01*
X57150Y19778D01*
X57150Y19678D01*
X57150Y19578D01*
X57150Y19478D01*
X57150Y19378D01*
X57150Y19278D01*
X57150Y19179D01*
X57150Y19079D01*
X57150Y18979D01*
X57150Y18879D01*
X57150Y18779D01*
X57150Y18679D01*
X57150Y18579D01*
X57150Y18479D01*
X57150Y18379D01*
X57150Y18280D01*
X57150Y18180D01*
X57150Y18080D01*
X57150Y17980D01*
X57150Y17880D01*
X57150Y17780D01*
X57150Y17680D01*
X57150Y17580D01*
X57150Y17480D01*
X57150Y17381D01*
X57150Y17281D01*
X57150Y17181D01*
X57150Y17081D01*
X57150Y16981D01*
X57150Y16881D01*
X57150Y16781D01*
X57150Y16681D01*
X57150Y16581D01*
X57150Y16482D01*
X57150Y16382D01*
X57150Y16282D01*
X57150Y16182D01*
X57150Y16082D01*
X57150Y15982D01*
X57150Y15882D01*
X57150Y15782D01*
X57150Y15682D01*
X57150Y15583D01*
X57150Y15483D01*
X57150Y15383D01*
X57150Y15283D01*
X57150Y15183D01*
X57150Y15083D01*
X57150Y14983D01*
X57150Y14883D01*
X57150Y14784D01*
X57150Y14684D01*
X57150Y14584D01*
X57150Y14484D01*
X57150Y14384D01*
X57150Y14284D01*
X57150Y14184D01*
X57150Y14084D01*
X57150Y13984D01*
X57150Y13885D01*
X57150Y13785D01*
X57150Y13685D01*
X57150Y13585D01*
X57150Y13485D01*
X57150Y13385D01*
X57150Y13285D01*
X57150Y13185D01*
X57150Y13085D01*
X57150Y12986D01*
X57150Y12886D01*
X57150Y12786D01*
X57150Y12686D01*
X57150Y12586D01*
X57150Y12486D01*
X57150Y12386D01*
X57150Y12286D01*
X57150Y12186D01*
X57150Y12087D01*
X57150Y11987D01*
X57150Y11887D01*
X57150Y11787D01*
X57150Y11687D01*
X57150Y11587D01*
X57150Y11487D01*
X57150Y11387D01*
X57150Y11287D01*
X57150Y11188D01*
X57150Y11088D01*
X57150Y10988D01*
X57150Y10888D01*
X57150Y10788D01*
X57150Y10688D01*
X57150Y10588D01*
X57150Y10488D01*
X57150Y10388D01*
X57150Y10289D01*
X57150Y10189D01*
X57150Y10089D01*
X57150Y9989D01*
X57150Y9889D01*
X57150Y9789D01*
X57150Y9689D01*
X57150Y9589D01*
X57150Y9489D01*
X57150Y9390D01*
X57150Y9290D01*
X57150Y9190D01*
X57150Y9090D01*
X57150Y8990D01*
X57150Y8890D01*
X57150Y8790D01*
X57150Y8690D01*
X57150Y8590D01*
X57150Y8491D01*
X57150Y8391D01*
X57150Y8291D01*
X57150Y8191D01*
X57150Y8091D01*
X57150Y7991D01*
X57150Y7891D01*
X57150Y7791D01*
X57150Y7691D01*
X57150Y7592D01*
X57150Y7492D01*
X57150Y7392D01*
X57150Y7292D01*
X57150Y7192D01*
X57150Y7092D01*
X57150Y6992D01*
X57150Y6892D01*
X57150Y6792D01*
X57150Y6693D01*
X57150Y6593D01*
X57150Y6493D01*
X57150Y6393D01*
X57150Y6293D01*
X57150Y6193D01*
X57150Y6093D01*
X57150Y5993D01*
X57150Y5893D01*
X57150Y5794D01*
X57150Y5694D01*
X57150Y5594D01*
X57150Y5494D01*
X57150Y5394D01*
X57150Y5294D01*
X57150Y5194D01*
X57150Y5094D01*
X57150Y4994D01*
X57150Y4895D01*
X57150Y4795D01*
X57150Y4695D01*
X57150Y4595D01*
X57150Y4495D01*
X57150Y4395D01*
X57150Y4295D01*
X57150Y4195D01*
X57150Y4096D01*
X57150Y3996D01*
X57150Y3896D01*
X57150Y3796D01*
X57150Y3696D01*
X57150Y3596D01*
X57150Y3496D01*
X57150Y3396D01*
X57150Y3296D01*
X57150Y3197D01*
X57150Y3097D01*
X57150Y2997D01*
X57150Y2897D01*
X57150Y2797D01*
X57150Y2697D01*
X57150Y2597D01*
X57150Y2497D01*
X57150Y2397D01*
X57150Y2297D01*
X57150Y2198D01*
X57150Y2098D01*
X57150Y1998D01*
X57150Y1898D01*
X57150Y1798D01*
X57150Y1698D01*
X57150Y1598D01*
X57150Y1498D01*
X57150Y1398D01*
X57150Y1299D01*
X57150Y1199D01*
X57150Y1099D01*
X57150Y999D01*
X57150Y899D01*
X57150Y799D01*
X57150Y699D01*
X57150Y599D01*
X57150Y499D01*
X57150Y400D01*
X57150Y300D01*
X57150Y200D01*
X57150Y100D01*
X57150Y0D01*
X57050Y0D01*
X56950Y0D01*
X56850Y0D01*
X56750Y0D01*
X56650Y0D01*
X56551Y0D01*
X56451Y0D01*
X56351Y0D01*
X56251Y0D01*
X56151Y0D01*
X56051Y0D01*
X55951Y0D01*
X55851Y0D01*
X55751Y0D01*
X55651Y0D01*
X55551Y0D01*
X55451Y0D01*
X55352Y0D01*
X55252Y0D01*
X55152Y0D01*
X55052Y0D01*
X54952Y0D01*
X54852Y0D01*
X54752Y0D01*
X54652Y0D01*
X54552Y0D01*
X54452Y0D01*
X54352Y0D01*
X54253Y0D01*
X54153Y0D01*
X54053Y0D01*
X53953Y0D01*
X53853Y0D01*
X53753Y0D01*
X53653Y0D01*
X53553Y0D01*
X53453Y0D01*
X53353Y0D01*
X53253Y0D01*
X53154Y0D01*
X53054Y0D01*
X52954Y0D01*
X52854Y0D01*
X52754Y0D01*
X52654Y0D01*
X52554Y0D01*
X52454Y0D01*
X52354Y0D01*
X52254Y0D01*
X52154Y0D01*
X52054Y0D01*
X51955Y0D01*
X51855Y0D01*
X51755Y0D01*
X51655Y0D01*
X51555Y0D01*
X51455Y0D01*
X51355Y0D01*
X51255Y0D01*
X51155Y0D01*
X51055Y0D01*
X50955Y0D01*
X50856Y0D01*
X50756Y0D01*
X50656Y0D01*
X50556Y0D01*
X50456Y0D01*
X50356Y0D01*
X50256Y0D01*
X50156Y0D01*
X50056Y0D01*
X49956Y0D01*
X49856Y0D01*
X49757Y0D01*
X49657Y0D01*
X49557Y0D01*
X49457Y0D01*
X49357Y0D01*
X49257Y0D01*
X49157Y0D01*
X49057Y0D01*
X48957Y0D01*
X48857Y0D01*
X48757Y0D01*
X48657Y0D01*
X48558Y0D01*
X48458Y0D01*
X48358Y0D01*
X48258Y0D01*
X48158Y0D01*
X48058Y0D01*
X47958Y0D01*
X47858Y0D01*
X47758Y0D01*
X47658Y0D01*
X47558Y0D01*
X47459Y0D01*
X47359Y0D01*
X47259Y0D01*
X47159Y0D01*
X47059Y0D01*
X46959Y0D01*
X46859Y0D01*
X46759Y0D01*
X46659Y0D01*
X46559Y0D01*
X46459Y0D01*
X46359Y0D01*
X46260Y0D01*
X46160Y0D01*
X46060Y0D01*
X45960Y0D01*
X45860Y0D01*
X45760Y0D01*
X45660Y0D01*
X45560Y0D01*
X45460Y0D01*
X45360Y0D01*
X45260Y0D01*
X45161Y0D01*
X45061Y0D01*
X44961Y0D01*
X44861Y0D01*
X44761Y0D01*
X44661Y0D01*
X44561Y0D01*
X44461Y0D01*
X44361Y0D01*
X44261Y0D01*
X44161Y0D01*
X44062Y0D01*
X43962Y0D01*
X43862Y0D01*
X43762Y0D01*
X43662Y0D01*
X43562Y0D01*
X43462Y0D01*
X43362Y0D01*
X43262Y0D01*
X43162Y0D01*
X43062Y0D01*
X42962Y0D01*
X42863Y0D01*
X42763Y0D01*
X42663Y0D01*
X42563Y0D01*
X42463Y0D01*
X42363Y0D01*
X42263Y0D01*
X42163Y0D01*
X42063Y0D01*
X41963Y0D01*
X41863Y0D01*
X41764Y0D01*
X41664Y0D01*
X41564Y0D01*
X41464Y0D01*
X41364Y0D01*
X41264Y0D01*
X41164Y0D01*
X41064Y0D01*
X40964Y0D01*
X40864Y0D01*
X40764Y0D01*
X40665Y0D01*
X40565Y0D01*
X40465Y0D01*
X40365Y0D01*
X40265Y0D01*
X40165Y0D01*
X40065Y0D01*
X39965Y0D01*
X39865Y0D01*
X39765Y0D01*
X39665Y0D01*
X39565Y0D01*
X39466Y0D01*
X39366Y0D01*
X39266Y0D01*
X39166Y0D01*
X39066Y0D01*
X38966Y0D01*
X38866Y0D01*
X38766Y0D01*
X38666Y0D01*
X38566Y0D01*
X38466Y0D01*
X38367Y0D01*
X38267Y0D01*
X38167Y0D01*
X38067Y0D01*
X37967Y0D01*
X37867Y0D01*
X37767Y0D01*
X37667Y0D01*
X37567Y0D01*
X37467Y0D01*
X37367Y0D01*
X37267Y0D01*
X37168Y0D01*
X37068Y0D01*
X36968Y0D01*
X36868Y0D01*
X36768Y0D01*
X36668Y0D01*
X36568Y0D01*
X36468Y0D01*
X36368Y0D01*
X36268Y0D01*
X36168Y0D01*
X36069Y0D01*
X35969Y0D01*
X35869Y0D01*
X35769Y0D01*
X35669Y0D01*
X35569Y0D01*
X35469Y0D01*
X35369Y0D01*
X35269Y0D01*
X35169Y0D01*
X35069Y0D01*
X34970Y0D01*
X34870Y0D01*
X34770Y0D01*
X34670Y0D01*
X34570Y0D01*
X34470Y0D01*
X34370Y0D01*
X34270Y0D01*
X34170Y0D01*
X34070Y0D01*
X33970Y0D01*
X33870Y0D01*
X33771Y0D01*
X33671Y0D01*
X33571Y0D01*
X33471Y0D01*
X33371Y0D01*
X33271Y0D01*
X33171Y0D01*
X33071Y0D01*
X32971Y0D01*
X32871Y0D01*
X32771Y0D01*
X32672Y0D01*
X32572Y0D01*
X32472Y0D01*
X32372Y0D01*
X32272Y0D01*
X32172Y0D01*
X32072Y0D01*
X31972Y0D01*
X31872Y0D01*
X31772Y0D01*
X31672Y0D01*
X31572Y0D01*
X31473Y0D01*
X31373Y0D01*
X31273Y0D01*
X31173Y0D01*
X31073Y0D01*
X30973Y0D01*
X30873Y0D01*
X30773Y0D01*
X30673Y0D01*
X30573Y0D01*
X30473Y0D01*
X30374Y0D01*
X30274Y0D01*
X30174Y0D01*
X30074Y0D01*
X29974Y0D01*
X29874Y0D01*
X29774Y0D01*
X29674Y0D01*
X29574Y0D01*
X29474Y0D01*
X29374Y0D01*
X29275Y0D01*
X29175Y0D01*
X29075Y0D01*
X28975Y0D01*
X28875Y0D01*
X28775Y0D01*
X28675Y0D01*
X28575Y0D01*
X28475Y0D01*
X28375Y0D01*
X28275Y0D01*
X28175Y0D01*
X28076Y0D01*
X27976Y0D01*
X27876Y0D01*
X27776Y0D01*
X27676Y0D01*
X27576Y0D01*
X27476Y0D01*
X27376Y0D01*
X27276Y0D01*
X27176Y0D01*
X27076Y0D01*
X26977Y0D01*
X26877Y0D01*
X26777Y0D01*
X26677Y0D01*
X26577Y0D01*
X26477Y0D01*
X26377Y0D01*
X26277Y0D01*
X26177Y0D01*
X26077Y0D01*
X25977Y0D01*
X25877Y0D01*
X25778Y0D01*
X25678Y0D01*
X25578Y0D01*
X25478Y0D01*
X25378Y0D01*
X25278Y0D01*
X25178Y0D01*
X25078Y0D01*
X24978Y0D01*
X24878Y0D01*
X24778Y0D01*
X24679Y0D01*
X24579Y0D01*
X24479Y0D01*
X24379Y0D01*
X24279Y0D01*
X24179Y0D01*
X24079Y0D01*
X23979Y0D01*
X23879Y0D01*
X23779Y0D01*
X23679Y0D01*
X23579Y0D01*
X23480Y0D01*
X23380Y0D01*
X23280Y0D01*
X23180Y0D01*
X23080Y0D01*
X22980Y0D01*
X22880Y0D01*
X22780Y0D01*
X22680Y0D01*
X22580Y0D01*
X22480Y0D01*
X22381Y0D01*
X22281Y0D01*
X22181Y0D01*
X22081Y0D01*
X21981Y0D01*
X21881Y0D01*
X21781Y0D01*
X21681Y0D01*
X21581Y0D01*
X21481Y0D01*
X21381Y0D01*
X21282Y0D01*
X21182Y0D01*
X21082Y0D01*
X20982Y0D01*
X20882Y0D01*
X20782Y0D01*
X20682Y0D01*
X20582Y0D01*
X20482Y0D01*
X20382Y0D01*
X20282Y0D01*
X20182Y0D01*
X20083Y0D01*
X19983Y0D01*
X19883Y0D01*
X19783Y0D01*
X19683Y0D01*
X19583Y0D01*
X19483Y0D01*
X19383Y0D01*
X19283Y0D01*
X19183Y0D01*
X19083Y0D01*
X18984Y0D01*
X18884Y0D01*
X18784Y0D01*
X18684Y0D01*
X18584Y0D01*
X18484Y0D01*
X18384Y0D01*
X18284Y0D01*
X18184Y0D01*
X18084Y0D01*
X17984Y0D01*
X17885Y0D01*
X17785Y0D01*
X17685Y0D01*
X17585Y0D01*
X17485Y0D01*
X17385Y0D01*
X17285Y0D01*
X17185Y0D01*
X17085Y0D01*
X16985Y0D01*
X16885Y0D01*
X16785Y0D01*
X16686Y0D01*
X16586Y0D01*
X16486Y0D01*
X16386Y0D01*
X16286Y0D01*
X16186Y0D01*
X16086Y0D01*
X15986Y0D01*
X15886Y0D01*
X15786Y0D01*
X15686Y0D01*
X15587Y0D01*
X15487Y0D01*
X15387Y0D01*
X15287Y0D01*
X15187Y0D01*
X15087Y0D01*
X14987Y0D01*
X14887Y0D01*
X14787Y0D01*
X14687Y0D01*
X14587Y0D01*
X14487Y0D01*
X14388Y0D01*
X14288Y0D01*
X14188Y0D01*
X14088Y0D01*
X13988Y0D01*
X13888Y0D01*
X13788Y0D01*
X13688Y0D01*
X13588Y0D01*
X13488Y0D01*
X13388Y0D01*
X13289Y0D01*
X13189Y0D01*
X13089Y0D01*
X12989Y0D01*
X12889Y0D01*
X12789Y0D01*
X12689Y0D01*
X12589Y0D01*
X12489Y0D01*
X12389Y0D01*
X12289Y0D01*
X12189Y0D01*
X12090Y0D01*
X11990Y0D01*
X11890Y0D01*
X11790Y0D01*
X11690Y0D01*
X11590Y0D01*
X11490Y0D01*
X11390Y0D01*
X11290Y0D01*
X11190Y0D01*
X11090Y0D01*
X10991Y0D01*
X10891Y0D01*
X10791Y0D01*
X10691Y0D01*
X10591Y0D01*
X10491Y0D01*
X10391Y0D01*
X10291Y0D01*
X10191Y0D01*
X10091Y0D01*
X9991Y0D01*
X9891Y0D01*
X9792Y0D01*
X9692Y0D01*
X9592Y0D01*
X9492Y0D01*
X9392Y0D01*
X9292Y0D01*
X9192Y0D01*
X9092Y0D01*
X8992Y0D01*
X8892Y0D01*
X8792Y0D01*
X8693Y0D01*
X8593Y0D01*
X8493Y0D01*
X8393Y0D01*
X8293Y0D01*
X8193Y0D01*
X8093Y0D01*
X7993Y0D01*
X7893Y0D01*
X7793Y0D01*
X7693Y0D01*
X7593Y0D01*
X7494Y0D01*
X7394Y0D01*
X7294Y0D01*
X7194Y0D01*
X7094Y0D01*
X6994Y0D01*
X6894Y0D01*
X6794Y0D01*
X6694Y0D01*
X6594Y0D01*
X6494Y0D01*
X6395Y0D01*
X6295Y0D01*
X6195Y0D01*
X6095Y0D01*
X5995Y0D01*
X5895Y0D01*
X5795Y0D01*
X5695Y0D01*
X5595Y0D01*
X5495Y0D01*
X5395Y0D01*
X5295Y0D01*
X5196Y0D01*
X5096Y0D01*
X4996Y0D01*
X4896Y0D01*
X4796Y0D01*
X4696Y0D01*
X4596Y0D01*
X4496Y0D01*
X4396Y0D01*
X4296Y0D01*
X4196Y0D01*
X4097Y0D01*
X3997Y0D01*
X3897Y0D01*
X3797Y0D01*
X3697Y0D01*
X3597Y0D01*
X3497Y0D01*
X3397Y0D01*
X3297Y0D01*
X3197Y0D01*
X3097Y0D01*
X2997Y0D01*
X2898Y0D01*
X2798Y0D01*
X2698Y0D01*
X2598Y0D01*
X2498Y0D01*
X2398Y0D01*
X2298Y0D01*
X2198Y0D01*
X2098Y0D01*
X1998Y0D01*
X1898Y0D01*
X1799Y0D01*
X1699Y0D01*
X1599Y0D01*
X1499Y0D01*
X1399Y0D01*
X1299Y0D01*
X1199Y0D01*
X1099Y0D01*
X999Y0D01*
X899Y0D01*
X799Y0D01*
X699Y0D01*
X600Y0D01*
X500Y0D01*
X400Y0D01*
X300Y0D01*
X200Y0D01*
X100Y0D01*
X0Y0D01*
X0Y0D01*
D11*
X16604Y14764D02*
X16604Y3620D01*
D11*
X16604Y3620D02*
X52486Y3620D01*
D11*
X52486Y7620D02*
X52486Y3620D01*
D11*
X49529Y7620D02*
X52486Y7620D01*
D11*
X49529Y7620D02*
X49529Y7620D01*
D11*
X5080Y24689D02*
X41968Y24689D01*
D11*
X41968Y24689D02*
X41968Y7620D01*
D11*
X41909Y7620D02*
X41968Y7620D01*
D11*
X6444Y14978D02*
X6444Y14764D01*
D11*
X5032Y14978D02*
X5032Y14978D01*
D11*
X5032Y14978D02*
X6444Y14978D01*
D11*
X5080Y14764D02*
X6444Y14764D01*
D11*
X5080Y24506D02*
X5080Y14764D01*
G36*
X6444Y15664D02*
X6444Y15664D01*
X6538Y15659D01*
X6631Y15644D01*
X6722Y15620D01*
X6810Y15586D01*
X6894Y15543D01*
X6973Y15492D01*
X7046Y15433D01*
X7112Y15366D01*
X7172Y15293D01*
X7223Y15214D01*
X7266Y15130D01*
X7300Y15042D01*
X7324Y14951D01*
X7339Y14858D01*
X7344Y14764D01*
X7344Y14764D01*
X7339Y14670D01*
X7324Y14577D01*
X7300Y14486D01*
X7266Y14398D01*
X7223Y14314D01*
X7172Y14235D01*
X7112Y14162D01*
X7046Y14095D01*
X6973Y14036D01*
X6894Y13984D01*
X6810Y13941D01*
X6722Y13908D01*
X6631Y13883D01*
X6538Y13869D01*
X6444Y13864D01*
X6444Y13864D01*
X6349Y13869D01*
X6256Y13883D01*
X6165Y13908D01*
X6077Y13941D01*
X5993Y13984D01*
X5915Y14036D01*
X5841Y14095D01*
X5775Y14162D01*
X5715Y14235D01*
X5664Y14314D01*
X5621Y14398D01*
X5587Y14486D01*
X5563Y14577D01*
X5548Y14670D01*
X5544Y14764D01*
X5544Y14764D01*
X5548Y14858D01*
X5563Y14951D01*
X5587Y15042D01*
X5621Y15130D01*
X5664Y15214D01*
X5715Y15293D01*
X5775Y15366D01*
X5841Y15433D01*
X5915Y15492D01*
X5993Y15543D01*
X6077Y15586D01*
X6165Y15620D01*
X6256Y15644D01*
X6349Y15659D01*
X6444Y15664D01*
G37*
G36*
X14064Y15664D02*
X14064Y15664D01*
X14158Y15659D01*
X14251Y15644D01*
X14342Y15620D01*
X14430Y15586D01*
X14514Y15543D01*
X14593Y15492D01*
X14666Y15433D01*
X14732Y15366D01*
X14792Y15293D01*
X14843Y15214D01*
X14886Y15130D01*
X14920Y15042D01*
X14944Y14951D01*
X14959Y14858D01*
X14964Y14764D01*
X14964Y14764D01*
X14959Y14670D01*
X14944Y14577D01*
X14920Y14486D01*
X14886Y14398D01*
X14843Y14314D01*
X14792Y14235D01*
X14732Y14162D01*
X14666Y14095D01*
X14593Y14036D01*
X14514Y13984D01*
X14430Y13941D01*
X14342Y13908D01*
X14251Y13883D01*
X14158Y13869D01*
X14064Y13864D01*
X14064Y13864D01*
X13969Y13869D01*
X13876Y13883D01*
X13785Y13908D01*
X13697Y13941D01*
X13613Y13984D01*
X13535Y14036D01*
X13461Y14095D01*
X13395Y14162D01*
X13335Y14235D01*
X13284Y14314D01*
X13241Y14398D01*
X13207Y14486D01*
X13183Y14577D01*
X13168Y14670D01*
X13164Y14764D01*
X13164Y14764D01*
X13168Y14858D01*
X13183Y14951D01*
X13207Y15042D01*
X13241Y15130D01*
X13284Y15214D01*
X13335Y15293D01*
X13395Y15366D01*
X13461Y15433D01*
X13535Y15492D01*
X13613Y15543D01*
X13697Y15586D01*
X13785Y15620D01*
X13876Y15644D01*
X13969Y15659D01*
X14064Y15664D01*
G37*
G36*
X8984Y15664D02*
X8984Y15664D01*
X9078Y15659D01*
X9171Y15644D01*
X9262Y15620D01*
X9350Y15586D01*
X9434Y15543D01*
X9513Y15492D01*
X9586Y15433D01*
X9652Y15366D01*
X9712Y15293D01*
X9763Y15214D01*
X9806Y15130D01*
X9840Y15042D01*
X9864Y14951D01*
X9879Y14858D01*
X9884Y14764D01*
X9884Y14764D01*
X9879Y14670D01*
X9864Y14577D01*
X9840Y14486D01*
X9806Y14398D01*
X9763Y14314D01*
X9712Y14235D01*
X9652Y14162D01*
X9586Y14095D01*
X9513Y14036D01*
X9434Y13984D01*
X9350Y13941D01*
X9262Y13908D01*
X9171Y13883D01*
X9078Y13869D01*
X8984Y13864D01*
X8984Y13864D01*
X8889Y13869D01*
X8796Y13883D01*
X8705Y13908D01*
X8617Y13941D01*
X8533Y13984D01*
X8455Y14036D01*
X8381Y14095D01*
X8315Y14162D01*
X8255Y14235D01*
X8204Y14314D01*
X8161Y14398D01*
X8127Y14486D01*
X8103Y14577D01*
X8088Y14670D01*
X8084Y14764D01*
X8084Y14764D01*
X8088Y14858D01*
X8103Y14951D01*
X8127Y15042D01*
X8161Y15130D01*
X8204Y15214D01*
X8255Y15293D01*
X8315Y15366D01*
X8381Y15433D01*
X8455Y15492D01*
X8533Y15543D01*
X8617Y15586D01*
X8705Y15620D01*
X8796Y15644D01*
X8889Y15659D01*
X8984Y15664D01*
G37*
G36*
X19144Y15664D02*
X19144Y15664D01*
X19238Y15659D01*
X19331Y15644D01*
X19422Y15620D01*
X19510Y15586D01*
X19594Y15543D01*
X19673Y15492D01*
X19746Y15433D01*
X19812Y15366D01*
X19872Y15293D01*
X19923Y15214D01*
X19966Y15130D01*
X20000Y15042D01*
X20024Y14951D01*
X20039Y14858D01*
X20044Y14764D01*
X20044Y14764D01*
X20039Y14670D01*
X20024Y14577D01*
X20000Y14486D01*
X19966Y14398D01*
X19923Y14314D01*
X19872Y14235D01*
X19812Y14162D01*
X19746Y14095D01*
X19673Y14036D01*
X19594Y13984D01*
X19510Y13941D01*
X19422Y13908D01*
X19331Y13883D01*
X19238Y13869D01*
X19144Y13864D01*
X19144Y13864D01*
X19049Y13869D01*
X18956Y13883D01*
X18865Y13908D01*
X18777Y13941D01*
X18693Y13984D01*
X18615Y14036D01*
X18541Y14095D01*
X18475Y14162D01*
X18415Y14235D01*
X18364Y14314D01*
X18321Y14398D01*
X18287Y14486D01*
X18263Y14577D01*
X18248Y14670D01*
X18244Y14764D01*
X18244Y14764D01*
X18248Y14858D01*
X18263Y14951D01*
X18287Y15042D01*
X18321Y15130D01*
X18364Y15214D01*
X18415Y15293D01*
X18475Y15366D01*
X18541Y15433D01*
X18615Y15492D01*
X18693Y15543D01*
X18777Y15586D01*
X18865Y15620D01*
X18956Y15644D01*
X19049Y15659D01*
X19144Y15664D01*
G37*
G36*
X16604Y15664D02*
X16604Y15664D01*
X16698Y15659D01*
X16791Y15644D01*
X16882Y15620D01*
X16970Y15586D01*
X17054Y15543D01*
X17133Y15492D01*
X17206Y15433D01*
X17272Y15366D01*
X17332Y15293D01*
X17383Y15214D01*
X17426Y15130D01*
X17460Y15042D01*
X17484Y14951D01*
X17499Y14858D01*
X17504Y14764D01*
X17504Y14764D01*
X17499Y14670D01*
X17484Y14577D01*
X17460Y14486D01*
X17426Y14398D01*
X17383Y14314D01*
X17332Y14235D01*
X17272Y14162D01*
X17206Y14095D01*
X17133Y14036D01*
X17054Y13984D01*
X16970Y13941D01*
X16882Y13908D01*
X16791Y13883D01*
X16698Y13869D01*
X16604Y13864D01*
X16604Y13864D01*
X16509Y13869D01*
X16416Y13883D01*
X16325Y13908D01*
X16237Y13941D01*
X16153Y13984D01*
X16075Y14036D01*
X16001Y14095D01*
X15935Y14162D01*
X15875Y14235D01*
X15824Y14314D01*
X15781Y14398D01*
X15747Y14486D01*
X15723Y14577D01*
X15708Y14670D01*
X15704Y14764D01*
X15704Y14764D01*
X15708Y14858D01*
X15723Y14951D01*
X15747Y15042D01*
X15781Y15130D01*
X15824Y15214D01*
X15875Y15293D01*
X15935Y15366D01*
X16001Y15433D01*
X16075Y15492D01*
X16153Y15543D01*
X16237Y15586D01*
X16325Y15620D01*
X16416Y15644D01*
X16509Y15659D01*
X16604Y15664D01*
G37*
G36*
X21684Y15664D02*
X21684Y15664D01*
X21778Y15659D01*
X21871Y15644D01*
X21962Y15620D01*
X22050Y15586D01*
X22134Y15543D01*
X22213Y15492D01*
X22286Y15433D01*
X22352Y15366D01*
X22412Y15293D01*
X22463Y15214D01*
X22506Y15130D01*
X22540Y15042D01*
X22564Y14951D01*
X22579Y14858D01*
X22584Y14764D01*
X22584Y14764D01*
X22579Y14670D01*
X22564Y14577D01*
X22540Y14486D01*
X22506Y14398D01*
X22463Y14314D01*
X22412Y14235D01*
X22352Y14162D01*
X22286Y14095D01*
X22213Y14036D01*
X22134Y13984D01*
X22050Y13941D01*
X21962Y13908D01*
X21871Y13883D01*
X21778Y13869D01*
X21684Y13864D01*
X21684Y13864D01*
X21589Y13869D01*
X21496Y13883D01*
X21405Y13908D01*
X21317Y13941D01*
X21233Y13984D01*
X21155Y14036D01*
X21081Y14095D01*
X21015Y14162D01*
X20955Y14235D01*
X20904Y14314D01*
X20861Y14398D01*
X20827Y14486D01*
X20803Y14577D01*
X20788Y14670D01*
X20784Y14764D01*
X20784Y14764D01*
X20788Y14858D01*
X20803Y14951D01*
X20827Y15042D01*
X20861Y15130D01*
X20904Y15214D01*
X20955Y15293D01*
X21015Y15366D01*
X21081Y15433D01*
X21155Y15492D01*
X21233Y15543D01*
X21317Y15586D01*
X21405Y15620D01*
X21496Y15644D01*
X21589Y15659D01*
X21684Y15664D01*
G37*
G36*
X11524Y15664D02*
X11524Y15664D01*
X11618Y15659D01*
X11711Y15644D01*
X11802Y15620D01*
X11890Y15586D01*
X11974Y15543D01*
X12053Y15492D01*
X12126Y15433D01*
X12192Y15366D01*
X12252Y15293D01*
X12303Y15214D01*
X12346Y15130D01*
X12380Y15042D01*
X12404Y14951D01*
X12419Y14858D01*
X12424Y14764D01*
X12424Y14764D01*
X12419Y14670D01*
X12404Y14577D01*
X12380Y14486D01*
X12346Y14398D01*
X12303Y14314D01*
X12252Y14235D01*
X12192Y14162D01*
X12126Y14095D01*
X12053Y14036D01*
X11974Y13984D01*
X11890Y13941D01*
X11802Y13908D01*
X11711Y13883D01*
X11618Y13869D01*
X11524Y13864D01*
X11524Y13864D01*
X11429Y13869D01*
X11336Y13883D01*
X11245Y13908D01*
X11157Y13941D01*
X11073Y13984D01*
X10995Y14036D01*
X10921Y14095D01*
X10855Y14162D01*
X10795Y14235D01*
X10744Y14314D01*
X10701Y14398D01*
X10667Y14486D01*
X10643Y14577D01*
X10628Y14670D01*
X10624Y14764D01*
X10624Y14764D01*
X10628Y14858D01*
X10643Y14951D01*
X10667Y15042D01*
X10701Y15130D01*
X10744Y15214D01*
X10795Y15293D01*
X10855Y15366D01*
X10921Y15433D01*
X10995Y15492D01*
X11073Y15543D01*
X11157Y15586D01*
X11245Y15620D01*
X11336Y15644D01*
X11429Y15659D01*
X11524Y15664D01*
G37*
G36*
X44449Y6080D02*
X44449Y6080D01*
X44547Y6075D01*
X44644Y6061D01*
X44739Y6037D01*
X44831Y6004D01*
X44920Y5962D01*
X45004Y5912D01*
X45083Y5853D01*
X45156Y5787D01*
X45222Y5714D01*
X45280Y5636D01*
X45331Y5551D01*
X45373Y5463D01*
X45406Y5370D01*
X45430Y5275D01*
X45444Y5178D01*
X45449Y5080D01*
X45449Y5080D01*
X45444Y4982D01*
X45430Y4885D01*
X45406Y4790D01*
X45373Y4697D01*
X45331Y4609D01*
X45280Y4524D01*
X45222Y4446D01*
X45156Y4373D01*
X45083Y4307D01*
X45004Y4248D01*
X44920Y4198D01*
X44831Y4156D01*
X44739Y4123D01*
X44644Y4099D01*
X44547Y4085D01*
X44449Y4080D01*
X44449Y4080D01*
X44351Y4085D01*
X44254Y4099D01*
X44158Y4123D01*
X44066Y4156D01*
X43977Y4198D01*
X43893Y4248D01*
X43814Y4307D01*
X43742Y4373D01*
X43676Y4446D01*
X43617Y4524D01*
X43567Y4609D01*
X43525Y4697D01*
X43492Y4790D01*
X43468Y4885D01*
X43453Y4982D01*
X43449Y5080D01*
X43449Y5080D01*
X43453Y5178D01*
X43468Y5275D01*
X43492Y5370D01*
X43525Y5463D01*
X43567Y5551D01*
X43617Y5636D01*
X43676Y5714D01*
X43742Y5787D01*
X43814Y5853D01*
X43893Y5912D01*
X43977Y5962D01*
X44066Y6004D01*
X44158Y6037D01*
X44254Y6061D01*
X44351Y6075D01*
X44449Y6080D01*
G37*
G36*
X49529Y6080D02*
X49529Y6080D01*
X49627Y6075D01*
X49724Y6061D01*
X49819Y6037D01*
X49911Y6004D01*
X50000Y5962D01*
X50084Y5912D01*
X50163Y5853D01*
X50236Y5787D01*
X50302Y5714D01*
X50360Y5636D01*
X50411Y5551D01*
X50453Y5463D01*
X50486Y5370D01*
X50510Y5275D01*
X50524Y5178D01*
X50529Y5080D01*
X50529Y5080D01*
X50524Y4982D01*
X50510Y4885D01*
X50486Y4790D01*
X50453Y4697D01*
X50411Y4609D01*
X50360Y4524D01*
X50302Y4446D01*
X50236Y4373D01*
X50163Y4307D01*
X50084Y4248D01*
X50000Y4198D01*
X49911Y4156D01*
X49819Y4123D01*
X49724Y4099D01*
X49627Y4085D01*
X49529Y4080D01*
X49529Y4080D01*
X49431Y4085D01*
X49334Y4099D01*
X49238Y4123D01*
X49146Y4156D01*
X49057Y4198D01*
X48973Y4248D01*
X48894Y4307D01*
X48822Y4373D01*
X48756Y4446D01*
X48697Y4524D01*
X48647Y4609D01*
X48605Y4697D01*
X48572Y4790D01*
X48548Y4885D01*
X48533Y4982D01*
X48529Y5080D01*
X48529Y5080D01*
X48533Y5178D01*
X48548Y5275D01*
X48572Y5370D01*
X48605Y5463D01*
X48647Y5551D01*
X48697Y5636D01*
X48756Y5714D01*
X48822Y5787D01*
X48894Y5853D01*
X48973Y5912D01*
X49057Y5962D01*
X49146Y6004D01*
X49238Y6037D01*
X49334Y6061D01*
X49431Y6075D01*
X49529Y6080D01*
G37*
G36*
X46989Y8620D02*
X46989Y8620D01*
X47087Y8615D01*
X47184Y8601D01*
X47279Y8577D01*
X47371Y8544D01*
X47460Y8502D01*
X47544Y8452D01*
X47623Y8393D01*
X47696Y8327D01*
X47762Y8254D01*
X47820Y8176D01*
X47871Y8091D01*
X47913Y8003D01*
X47946Y7910D01*
X47970Y7815D01*
X47984Y7718D01*
X47989Y7620D01*
X47989Y7620D01*
X47984Y7522D01*
X47970Y7425D01*
X47946Y7330D01*
X47913Y7237D01*
X47871Y7149D01*
X47820Y7064D01*
X47762Y6986D01*
X47696Y6913D01*
X47623Y6847D01*
X47544Y6788D01*
X47460Y6738D01*
X47371Y6696D01*
X47279Y6663D01*
X47184Y6639D01*
X47087Y6625D01*
X46989Y6620D01*
X46989Y6620D01*
X46891Y6625D01*
X46794Y6639D01*
X46698Y6663D01*
X46606Y6696D01*
X46517Y6738D01*
X46433Y6788D01*
X46354Y6847D01*
X46282Y6913D01*
X46216Y6986D01*
X46157Y7064D01*
X46107Y7149D01*
X46065Y7237D01*
X46032Y7330D01*
X46008Y7425D01*
X45993Y7522D01*
X45989Y7620D01*
X45989Y7620D01*
X45993Y7718D01*
X46008Y7815D01*
X46032Y7910D01*
X46065Y8003D01*
X46107Y8091D01*
X46157Y8176D01*
X46216Y8254D01*
X46282Y8327D01*
X46354Y8393D01*
X46433Y8452D01*
X46517Y8502D01*
X46606Y8544D01*
X46698Y8577D01*
X46794Y8601D01*
X46891Y8615D01*
X46989Y8620D01*
G37*
G36*
X44449Y8620D02*
X44449Y8620D01*
X44547Y8615D01*
X44644Y8601D01*
X44739Y8577D01*
X44831Y8544D01*
X44920Y8502D01*
X45004Y8452D01*
X45083Y8393D01*
X45156Y8327D01*
X45222Y8254D01*
X45280Y8176D01*
X45331Y8091D01*
X45373Y8003D01*
X45406Y7910D01*
X45430Y7815D01*
X45444Y7718D01*
X45449Y7620D01*
X45449Y7620D01*
X45444Y7522D01*
X45430Y7425D01*
X45406Y7330D01*
X45373Y7237D01*
X45331Y7149D01*
X45280Y7064D01*
X45222Y6986D01*
X45156Y6913D01*
X45083Y6847D01*
X45004Y6788D01*
X44920Y6738D01*
X44831Y6696D01*
X44739Y6663D01*
X44644Y6639D01*
X44547Y6625D01*
X44449Y6620D01*
X44449Y6620D01*
X44351Y6625D01*
X44254Y6639D01*
X44158Y6663D01*
X44066Y6696D01*
X43977Y6738D01*
X43893Y6788D01*
X43814Y6847D01*
X43742Y6913D01*
X43676Y6986D01*
X43617Y7064D01*
X43567Y7149D01*
X43525Y7237D01*
X43492Y7330D01*
X43468Y7425D01*
X43453Y7522D01*
X43449Y7620D01*
X43449Y7620D01*
X43453Y7718D01*
X43468Y7815D01*
X43492Y7910D01*
X43525Y8003D01*
X43567Y8091D01*
X43617Y8176D01*
X43676Y8254D01*
X43742Y8327D01*
X43814Y8393D01*
X43893Y8452D01*
X43977Y8502D01*
X44066Y8544D01*
X44158Y8577D01*
X44254Y8601D01*
X44351Y8615D01*
X44449Y8620D01*
G37*
G36*
X38369Y8620D02*
X40369Y8620D01*
X40369Y6620D01*
X38369Y6620D01*
G37*
G36*
X45989Y6080D02*
X47989Y6080D01*
X47989Y4080D01*
X45989Y4080D01*
G37*
G36*
X49529Y8620D02*
X49529Y8620D01*
X49627Y8615D01*
X49724Y8601D01*
X49819Y8577D01*
X49911Y8544D01*
X50000Y8502D01*
X50084Y8452D01*
X50163Y8393D01*
X50236Y8327D01*
X50302Y8254D01*
X50360Y8176D01*
X50411Y8091D01*
X50453Y8003D01*
X50486Y7910D01*
X50510Y7815D01*
X50524Y7718D01*
X50529Y7620D01*
X50529Y7620D01*
X50524Y7522D01*
X50510Y7425D01*
X50486Y7330D01*
X50453Y7237D01*
X50411Y7149D01*
X50360Y7064D01*
X50302Y6986D01*
X50236Y6913D01*
X50163Y6847D01*
X50084Y6788D01*
X50000Y6738D01*
X49911Y6696D01*
X49819Y6663D01*
X49724Y6639D01*
X49627Y6625D01*
X49529Y6620D01*
X49529Y6620D01*
X49431Y6625D01*
X49334Y6639D01*
X49238Y6663D01*
X49146Y6696D01*
X49057Y6738D01*
X48973Y6788D01*
X48894Y6847D01*
X48822Y6913D01*
X48756Y6986D01*
X48697Y7064D01*
X48647Y7149D01*
X48605Y7237D01*
X48572Y7330D01*
X48548Y7425D01*
X48533Y7522D01*
X48529Y7620D01*
X48529Y7620D01*
X48533Y7718D01*
X48548Y7815D01*
X48572Y7910D01*
X48605Y8003D01*
X48647Y8091D01*
X48697Y8176D01*
X48756Y8254D01*
X48822Y8327D01*
X48894Y8393D01*
X48973Y8452D01*
X49057Y8502D01*
X49146Y8544D01*
X49238Y8577D01*
X49334Y8601D01*
X49431Y8615D01*
X49529Y8620D01*
G37*
G36*
X41909Y8620D02*
X41909Y8620D01*
X42007Y8615D01*
X42104Y8601D01*
X42199Y8577D01*
X42291Y8544D01*
X42380Y8502D01*
X42464Y8452D01*
X42543Y8393D01*
X42616Y8327D01*
X42682Y8254D01*
X42740Y8176D01*
X42791Y8091D01*
X42833Y8003D01*
X42866Y7910D01*
X42890Y7815D01*
X42904Y7718D01*
X42909Y7620D01*
X42909Y7620D01*
X42904Y7522D01*
X42890Y7425D01*
X42866Y7330D01*
X42833Y7237D01*
X42791Y7149D01*
X42740Y7064D01*
X42682Y6986D01*
X42616Y6913D01*
X42543Y6847D01*
X42464Y6788D01*
X42380Y6738D01*
X42291Y6696D01*
X42199Y6663D01*
X42104Y6639D01*
X42007Y6625D01*
X41909Y6620D01*
X41909Y6620D01*
X41811Y6625D01*
X41714Y6639D01*
X41618Y6663D01*
X41526Y6696D01*
X41437Y6738D01*
X41353Y6788D01*
X41274Y6847D01*
X41202Y6913D01*
X41136Y6986D01*
X41077Y7064D01*
X41027Y7149D01*
X40985Y7237D01*
X40952Y7330D01*
X40928Y7425D01*
X40913Y7522D01*
X40909Y7620D01*
X40909Y7620D01*
X40913Y7718D01*
X40928Y7815D01*
X40952Y7910D01*
X40985Y8003D01*
X41027Y8091D01*
X41077Y8176D01*
X41136Y8254D01*
X41202Y8327D01*
X41274Y8393D01*
X41353Y8452D01*
X41437Y8502D01*
X41526Y8544D01*
X41618Y8577D01*
X41714Y8601D01*
X41811Y8615D01*
X41909Y8620D01*
G37*
G36*
X41909Y6080D02*
X41909Y6080D01*
X42007Y6075D01*
X42104Y6061D01*
X42199Y6037D01*
X42291Y6004D01*
X42380Y5962D01*
X42464Y5912D01*
X42543Y5853D01*
X42616Y5787D01*
X42682Y5714D01*
X42740Y5636D01*
X42791Y5551D01*
X42833Y5463D01*
X42866Y5370D01*
X42890Y5275D01*
X42904Y5178D01*
X42909Y5080D01*
X42909Y5080D01*
X42904Y4982D01*
X42890Y4885D01*
X42866Y4790D01*
X42833Y4697D01*
X42791Y4609D01*
X42740Y4524D01*
X42682Y4446D01*
X42616Y4373D01*
X42543Y4307D01*
X42464Y4248D01*
X42380Y4198D01*
X42291Y4156D01*
X42199Y4123D01*
X42104Y4099D01*
X42007Y4085D01*
X41909Y4080D01*
X41909Y4080D01*
X41811Y4085D01*
X41714Y4099D01*
X41618Y4123D01*
X41526Y4156D01*
X41437Y4198D01*
X41353Y4248D01*
X41274Y4307D01*
X41202Y4373D01*
X41136Y4446D01*
X41077Y4524D01*
X41027Y4609D01*
X40985Y4697D01*
X40952Y4790D01*
X40928Y4885D01*
X40913Y4982D01*
X40909Y5080D01*
X40909Y5080D01*
X40913Y5178D01*
X40928Y5275D01*
X40952Y5370D01*
X40985Y5463D01*
X41027Y5551D01*
X41077Y5636D01*
X41136Y5714D01*
X41202Y5787D01*
X41274Y5853D01*
X41353Y5912D01*
X41437Y5962D01*
X41526Y6004D01*
X41618Y6037D01*
X41714Y6061D01*
X41811Y6075D01*
X41909Y6080D01*
G37*
G36*
X39369Y6080D02*
X39369Y6080D01*
X39467Y6075D01*
X39564Y6061D01*
X39659Y6037D01*
X39751Y6004D01*
X39840Y5962D01*
X39924Y5912D01*
X40003Y5853D01*
X40076Y5787D01*
X40142Y5714D01*
X40200Y5636D01*
X40251Y5551D01*
X40293Y5463D01*
X40326Y5370D01*
X40350Y5275D01*
X40364Y5178D01*
X40369Y5080D01*
X40369Y5080D01*
X40364Y4982D01*
X40350Y4885D01*
X40326Y4790D01*
X40293Y4697D01*
X40251Y4609D01*
X40200Y4524D01*
X40142Y4446D01*
X40076Y4373D01*
X40003Y4307D01*
X39924Y4248D01*
X39840Y4198D01*
X39751Y4156D01*
X39659Y4123D01*
X39564Y4099D01*
X39467Y4085D01*
X39369Y4080D01*
X39369Y4080D01*
X39271Y4085D01*
X39174Y4099D01*
X39078Y4123D01*
X38986Y4156D01*
X38897Y4198D01*
X38813Y4248D01*
X38734Y4307D01*
X38662Y4373D01*
X38596Y4446D01*
X38537Y4524D01*
X38487Y4609D01*
X38445Y4697D01*
X38412Y4790D01*
X38388Y4885D01*
X38373Y4982D01*
X38369Y5080D01*
X38369Y5080D01*
X38373Y5178D01*
X38388Y5275D01*
X38412Y5370D01*
X38445Y5463D01*
X38487Y5551D01*
X38537Y5636D01*
X38596Y5714D01*
X38662Y5787D01*
X38734Y5853D01*
X38813Y5912D01*
X38897Y5962D01*
X38986Y6004D01*
X39078Y6037D01*
X39174Y6061D01*
X39271Y6075D01*
X39369Y6080D01*
G37*
M02*
